<svg xmlns="http://www.w3.org/2000/svg" xmlns:xlink="http://www.w3.org/1999/xlink" width="500" zoomAndPan="magnify" viewBox="0 0 375 374.999991" height="500" preserveAspectRatio="xMidYMid meet" version="1.0"><defs><g/><clipPath id="86ed363f42"><path d="M 173.285156 112.136719 L 285.664062 112.136719 L 285.664062 225 L 173.285156 225 Z M 173.285156 112.136719 " clip-rule="nonzero"/></clipPath></defs><g clip-path="url(#86ed363f42)"><path fill="#000000" d="M 173.285156 112.136719 L 285.546875 112.136719 L 285.546875 225 L 173.285156 225 Z M 173.285156 112.136719 " fill-opacity="1" fill-rule="nonzero"/></g><g fill="#ffffff" fill-opacity="1"><g transform="translate(186.565954, 209.110013)"><g><path d="M 6.28125 -80.246094 L 9.886719 -80.246094 L 9.886719 -2.90625 L 6.28125 -2.90625 L 6.28125 0 L 24.539062 0 L 24.539062 -2.90625 L 21.515625 -2.90625 L 21.515625 -80.246094 L 24.539062 -80.246094 L 24.539062 -83.039062 L 6.28125 -83.039062 Z M 6.28125 -80.246094 "/></g></g></g><g fill="#ffffff" fill-opacity="1"><g transform="translate(215.987091, 209.110013)"><g><path d="M 15.351562 -2.90625 L 11.628906 -2.90625 L 14.652344 -16.980469 L 35.238281 -16.980469 L 37.679688 -2.90625 L 33.261719 -2.90625 L 33.261719 0 L 55.007812 0 L 55.007812 -2.90625 L 50.824219 -2.90625 L 33.144531 -83.039062 L 26.167969 -83.039062 L 6.511719 -2.90625 L 1.511719 -2.90625 L 1.511719 0 L 15.351562 0 Z M 23.726562 -54.078125 L 25.003906 -62.105469 L 34.308594 -20.121094 L 15.816406 -20.121094 Z M 23.726562 -54.078125 "/></g></g></g><g fill="#0097b2" fill-opacity="1"><g transform="translate(53.213473, 206.632911)"><g><path d="M 27.894531 -34.242188 C 26.957031 -37.300781 24.527344 -39.648438 21.46875 -39.648438 C 14.730469 -39.648438 12.300781 -34.242188 12.300781 -33.929688 L 12.300781 -36.828125 C 12.300781 -37.847656 11.597656 -39.179688 10.03125 -39.179688 C 9.167969 -39.179688 7.914062 -38.710938 6.894531 -38.160156 C 6.269531 -37.925781 5.640625 -37.613281 5.015625 -37.222656 L 1.566406 -35.574219 L 2.351562 -34.085938 L 5.09375 -35.105469 L 5.09375 -1.488281 L 2.039062 -1.488281 L 2.039062 -0.078125 L 15.515625 -0.078125 L 15.515625 -1.488281 L 12.300781 -1.488281 L 12.300781 -29.855469 C 12.929688 -32.285156 15.046875 -36.203125 17.867188 -36.203125 C 19.433594 -36.203125 21.15625 -34.636719 21.15625 -31.734375 L 21.15625 -1.488281 L 19.121094 -1.488281 L 19.121094 0 L 30.402344 0 L 30.402344 -1.488281 L 28.367188 -1.488281 L 28.367188 -31.421875 C 29.070312 -33.695312 30.167969 -36.203125 32.597656 -36.203125 C 34.164062 -36.203125 35.890625 -34.636719 35.890625 -31.734375 L 35.890625 -5.5625 C 35.890625 -1.488281 37.847656 0.46875 40.277344 0.46875 C 42.785156 0.46875 44.742188 0 46.230469 -0.625 L 45.996094 -2.195312 C 45.605469 -2.117188 45.292969 -2.039062 45.058594 -2.039062 C 43.882812 -2.039062 43.097656 -2.585938 43.097656 -3.527344 L 43.097656 -31.265625 C 43.097656 -35.574219 40.199219 -39.648438 36.203125 -39.648438 C 30.167969 -39.648438 28.289062 -35.496094 27.894531 -34.242188 Z M 27.894531 -34.242188 "/></g></g></g><g fill="#00bf63" fill-opacity="1"><g transform="translate(100.615813, 206.632911)"><g><path d="M 28.835938 -5.640625 C 28.757812 -5.40625 28.679688 -5.171875 28.523438 -4.9375 C 28.289062 -4.464844 27.738281 -4.230469 26.957031 -4.230469 C 25.625 -4.230469 24.917969 -5.484375 24.917969 -6.972656 L 24.996094 -29.933594 C 24.996094 -35.183594 21.707031 -39.648438 14.652344 -39.648438 C 7.992188 -39.648438 4.152344 -36.28125 4.152344 -31.972656 C 4.152344 -30.089844 5.71875 -28.523438 7.601562 -28.523438 C 9.714844 -28.523438 11.207031 -30.089844 11.207031 -31.972656 C 11.207031 -33.773438 10.109375 -35.027344 8.304688 -35.339844 C 8.933594 -36.828125 10.8125 -37.925781 13.085938 -37.925781 C 15.828125 -37.925781 17.789062 -35.890625 17.789062 -30.246094 L 17.789062 -23.273438 C 11.832031 -22.882812 1.960938 -19.042969 1.960938 -9.558594 C 1.960938 -2.117188 5.71875 0.707031 10.03125 0.707031 C 12.460938 0.707031 14.652344 -0.625 16.140625 -1.960938 C 17.003906 -2.742188 17.867188 -3.605469 18.570312 -4.625 C 18.570312 -4.703125 18.570312 -4.703125 18.648438 -4.78125 C 18.726562 -4.859375 18.882812 -4.859375 19.042969 -4.78125 C 19.199219 -3.761719 19.511719 -2.820312 19.902344 -2.039062 C 20.609375 -0.546875 21.941406 0.707031 24.371094 0.707031 C 27.503906 0.707031 30.402344 -1.253906 30.402344 -5.640625 Z M 13.476562 -3.371094 C 11.675781 -3.371094 9.714844 -5.171875 9.714844 -11.207031 C 9.714844 -18.570312 14.417969 -21.15625 17.789062 -21.390625 L 17.710938 -6.972656 C 17.003906 -5.328125 15.28125 -3.371094 13.476562 -3.371094 Z M 13.476562 -3.371094 "/></g></g></g><g fill="#ff3131" fill-opacity="1"><g transform="translate(131.014249, 206.632911)"><g><path d="M 30.011719 -39.886719 C 26.5625 -39.886719 24.214844 -38.082031 22.960938 -36.90625 C 20.84375 -38.789062 18.492188 -39.730469 15.90625 -39.730469 C 8.070312 -39.730469 3.292969 -32.910156 3.292969 -23.351562 C 3.292969 -17.472656 5.09375 -12.382812 8.542969 -9.324219 C 5.878906 -9.324219 2.742188 -6.894531 2.742188 -3.371094 C 2.742188 6.347656 22.882812 1.253906 22.882812 11.519531 C 22.882812 14.886719 19.199219 17.316406 16.457031 17.316406 C 13.085938 17.316406 10.890625 16.0625 10.03125 14.730469 C 11.519531 14.339844 12.695312 13.007812 12.695312 11.441406 C 12.695312 9.796875 11.046875 7.835938 9.167969 7.835938 C 7.367188 7.835938 5.878906 9.402344 5.878906 11.285156 C 5.878906 15.984375 9.714844 18.964844 16.613281 18.964844 C 24.449219 18.964844 30.011719 16.457031 30.011719 9.324219 C 30.011719 -1.878906 7.210938 0.625 7.210938 -5.171875 C 7.210938 -6.660156 8.542969 -7.992188 10.5 -7.992188 C 11.988281 -7.128906 13.792969 -6.660156 15.90625 -6.660156 C 24.292969 -6.660156 28.210938 -13.554688 28.210938 -23.351562 C 28.210938 -29.304688 26.640625 -32.675781 23.898438 -35.808594 C 24.449219 -36.359375 24.996094 -36.515625 25.546875 -36.75 L 26.40625 -37.0625 L 26.40625 -36.359375 C 26.40625 -34.476562 27.894531 -32.988281 29.777344 -32.988281 C 31.890625 -32.988281 33.304688 -34.476562 33.304688 -36.359375 C 33.304688 -38.238281 31.8125 -39.886719 30.011719 -39.886719 Z M 15.75 -8.304688 C 11.988281 -8.304688 11.207031 -15.515625 11.207031 -21.550781 C 11.207031 -33.460938 11.988281 -37.925781 15.75 -37.925781 C 19.746094 -37.925781 20.375 -33.851562 20.375 -21.550781 C 20.375 -14.886719 19.433594 -8.304688 15.75 -8.304688 Z M 15.75 -8.304688 "/></g></g></g><g fill="#000000" fill-opacity="1"><g transform="translate(111.583525, 308.639658)"><g><path d="M 16.636719 -1.90625 C 16.457031 -2.441406 11.621094 -12.199219 10.515625 -14.375 L 14.59375 -21.339844 L 16.8125 -21.339844 L 16.8125 -22.179688 L 11.757812 -22.179688 L 11.757812 -21.339844 L 13.398438 -21.339844 L 7.1875 -11 L 7.1875 -31.1875 C 7.1875 -31.761719 6.742188 -32.382812 5.898438 -32.382812 C 5.5 -32.382812 4.792969 -32.164062 4.214844 -31.851562 L 3.105469 -31.363281 L 1.199219 -30.386719 L 1.597656 -29.632812 L 3.105469 -30.210938 L 3.105469 -0.886719 L 1.375 -0.886719 L 1.375 -0.0429688 L 8.917969 -0.0429688 L 8.917969 -0.886719 L 7.1875 -0.886719 L 7.1875 -8.785156 L 8.25 -10.648438 L 12.199219 -2.394531 C 13.042969 -0.621094 14.195312 0.265625 15.660156 0.265625 C 16.414062 0.265625 16.992188 0.132812 17.480469 -0.0429688 C 17.746094 -0.175781 17.96875 -0.265625 18.144531 -0.398438 L 18.144531 -1.285156 C 17.300781 -1.066406 16.945312 -1.332031 16.636719 -1.90625 Z M 16.636719 -1.90625 "/></g></g></g><g fill="#000000" fill-opacity="1"><g transform="translate(130.301549, 308.639658)"><g><path d="M 14.328125 -13 L 14.328125 -13.175781 C 14.019531 -19.917969 11.933594 -22.449219 8.207031 -22.449219 C 3.816406 -22.449219 1.019531 -17.566406 1.019531 -11.046875 C 1.019531 -3.992188 4.035156 0.445312 8.207031 0.445312 L 9.003906 0.445312 C 11.976562 0.445312 14.285156 -1.285156 14.285156 -4.082031 L 12.910156 -4.082031 C 12.554688 -1.820312 11.179688 -0.488281 9.40625 -0.488281 C 6.742188 -0.488281 5.457031 -3.414062 5.457031 -12.023438 L 14.328125 -12.023438 Z M 8.164062 -21.515625 C 10.070312 -21.515625 10.558594 -20.097656 10.558594 -13.175781 L 5.457031 -13.175781 C 5.589844 -19.609375 6.519531 -21.515625 8.164062 -21.515625 Z M 8.164062 -21.515625 "/></g></g></g><g fill="#000000" fill-opacity="1"><g transform="translate(145.73727, 308.639658)"><g><path d="M 15.484375 -21.425781 L 15.484375 -22.226562 L 10.46875 -22.226562 L 10.46875 -21.425781 L 12.730469 -21.425781 L 9.449219 -8.296875 L 4.65625 -21.425781 L 6.609375 -21.425781 L 6.609375 -22.226562 L -0.621094 -22.226562 L -0.621094 -21.425781 L 0.53125 -21.425781 L 7.496094 -0.53125 L 7.496094 -0.265625 L 5.679688 6.921875 C 5.144531 8.472656 4.257812 9.582031 2.660156 9.582031 C 1.550781 9.582031 1.507812 8.917969 1.820312 8.695312 C 2.394531 8.339844 2.660156 7.808594 2.660156 7.097656 C 2.660156 6.035156 1.820312 5.234375 0.796875 5.234375 C -0.265625 5.234375 -1.066406 5.988281 -1.199219 7.054688 L -1.199219 7.097656 C -1.199219 7.230469 -1.152344 7.320312 -1.109375 7.363281 C -0.976562 9.273438 0.621094 10.515625 2.574219 10.515625 C 4.746094 10.515625 5.898438 9.804688 6.789062 7.363281 L 12.023438 -13.664062 L 14.019531 -21.425781 Z M 15.484375 -21.425781 "/></g></g></g><g fill="#000000" fill-opacity="1"><g transform="translate(160.951205, 308.639658)"><g><path d="M 26.707031 -30.566406 L 28.125 -30.566406 L 23.203125 -9.359375 L 18.675781 -30.566406 L 20.363281 -30.566406 L 20.363281 -31.675781 L 13.085938 -31.675781 L 13.085938 -30.566406 L 14.507812 -30.566406 L 15.082031 -27.769531 L 11.3125 -10.292969 L 6.699219 -30.566406 L 8.382812 -30.566406 L 8.382812 -31.675781 L 0.621094 -31.675781 L 0.621094 -30.566406 L 2.527344 -30.566406 L 9.316406 -0.0429688 L 11 -0.0429688 L 15.96875 -23.378906 L 20.851562 -0.0429688 L 22.980469 -0.0429688 L 30.078125 -30.566406 L 31.984375 -30.566406 L 31.984375 -31.675781 L 26.707031 -31.675781 Z M 26.707031 -30.566406 "/></g></g></g><g fill="#000000" fill-opacity="1"><g transform="translate(193.552502, 308.639658)"><g><path d="M 13.972656 -21.78125 C 13.53125 -22.226562 13 -22.449219 12.421875 -22.449219 L 12.378906 -22.449219 C 10.292969 -22.449219 8.164062 -21.472656 7.054688 -19.207031 L 7.054688 -21.027344 C 7.054688 -21.605469 6.609375 -22.269531 5.722656 -22.269531 C 5.234375 -22.269531 4.613281 -22.046875 4.035156 -21.738281 L 2.972656 -21.207031 L 0.976562 -20.140625 L 1.375 -19.476562 L 2.972656 -20.050781 L 2.972656 -0.84375 L 1.375 -0.84375 L 1.375 0 L 8.828125 0 L 8.828125 -0.84375 L 7.054688 -0.84375 L 7.054688 -16.902344 C 7.054688 -17.257812 7.675781 -19.476562 10.160156 -20.671875 L 10.160156 -20.140625 C 10.160156 -18.898438 11.136719 -17.921875 12.378906 -17.921875 C 13.753906 -17.921875 14.640625 -18.898438 14.640625 -20.140625 C 14.640625 -20.851562 14.417969 -21.382812 13.972656 -21.78125 Z M 13.972656 -21.78125 "/></g></g></g><g fill="#000000" fill-opacity="1"><g transform="translate(208.766437, 308.639658)"><g><path d="M 7.230469 -21.25 C 7.230469 -21.828125 6.875 -22.492188 5.988281 -22.492188 C 5.5 -22.492188 4.925781 -22.269531 4.257812 -21.960938 L 3.148438 -21.472656 L 1.199219 -20.585938 L 1.640625 -19.742188 L 3.148438 -20.316406 L 3.148438 -3.59375 C 3.148438 -1.332031 3.992188 0.445312 6.253906 0.445312 C 7.277344 0.445312 8.207031 0.132812 8.917969 -0.175781 C 9.316406 -0.355469 9.714844 -0.578125 10.113281 -0.796875 L 9.714844 -1.820312 C 7.898438 -1.109375 7.230469 -1.640625 7.230469 -3.371094 Z M 5.234375 -25.285156 C 6.476562 -25.285156 7.453125 -26.261719 7.453125 -27.503906 C 7.453125 -28.746094 6.476562 -29.722656 5.234375 -29.722656 C 3.992188 -29.722656 2.929688 -28.746094 2.929688 -27.503906 C 2.929688 -26.261719 3.992188 -25.285156 5.234375 -25.285156 Z M 5.234375 -25.285156 "/></g></g></g><g fill="#000000" fill-opacity="1"><g transform="translate(219.988376, 308.639658)"><g><path d="M 6.964844 -28.171875 L 4.523438 -27.28125 L 4.523438 -27.105469 C 4.523438 -23.554688 2.261719 -22.09375 0.886719 -22.09375 L 0.886719 -20.9375 L 2.929688 -20.9375 L 2.929688 -5.058594 C 2.929688 -2.039062 4.257812 0.488281 6.609375 0.488281 C 7.851562 0.488281 11.667969 0 11.667969 -5.191406 L 10.867188 -5.191406 C 10.867188 -3.902344 10.070312 -1.550781 8.164062 -1.550781 C 7.410156 -1.550781 6.964844 -2.441406 6.964844 -3.636719 L 6.964844 -20.9375 L 10.957031 -20.9375 L 10.957031 -22.09375 L 6.964844 -22.09375 Z M 6.964844 -28.171875 "/></g></g></g><g fill="#000000" fill-opacity="1"><g transform="translate(232.762762, 308.639658)"><g><path d="M 14.328125 -13 L 14.328125 -13.175781 C 14.019531 -19.917969 11.933594 -22.449219 8.207031 -22.449219 C 3.816406 -22.449219 1.019531 -17.566406 1.019531 -11.046875 C 1.019531 -3.992188 4.035156 0.445312 8.207031 0.445312 L 9.003906 0.445312 C 11.976562 0.445312 14.285156 -1.285156 14.285156 -4.082031 L 12.910156 -4.082031 C 12.554688 -1.820312 11.179688 -0.488281 9.40625 -0.488281 C 6.742188 -0.488281 5.457031 -3.414062 5.457031 -12.023438 L 14.328125 -12.023438 Z M 8.164062 -21.515625 C 10.070312 -21.515625 10.558594 -20.097656 10.558594 -13.175781 L 5.457031 -13.175781 C 5.589844 -19.609375 6.519531 -21.515625 8.164062 -21.515625 Z M 8.164062 -21.515625 "/></g></g></g><g fill="#000000" fill-opacity="1"><g transform="translate(248.198483, 308.639658)"><g><path d="M 13.972656 -21.78125 C 13.53125 -22.226562 13 -22.449219 12.421875 -22.449219 L 12.378906 -22.449219 C 10.292969 -22.449219 8.164062 -21.472656 7.054688 -19.207031 L 7.054688 -21.027344 C 7.054688 -21.605469 6.609375 -22.269531 5.722656 -22.269531 C 5.234375 -22.269531 4.613281 -22.046875 4.035156 -21.738281 L 2.972656 -21.207031 L 0.976562 -20.140625 L 1.375 -19.476562 L 2.972656 -20.050781 L 2.972656 -0.84375 L 1.375 -0.84375 L 1.375 0 L 8.828125 0 L 8.828125 -0.84375 L 7.054688 -0.84375 L 7.054688 -16.902344 C 7.054688 -17.257812 7.675781 -19.476562 10.160156 -20.671875 L 10.160156 -20.140625 C 10.160156 -18.898438 11.136719 -17.921875 12.378906 -17.921875 C 13.753906 -17.921875 14.640625 -18.898438 14.640625 -20.140625 C 14.640625 -20.851562 14.417969 -21.382812 13.972656 -21.78125 Z M 13.972656 -21.78125 "/></g></g></g></svg>